<svg xmlns="http://www.w3.org/2000/svg" xmlns:xlink="http://www.w3.org/1999/xlink" width="71.906" height="80" viewBox="0 0 71.906 80">
  <defs>
    <clipPath id="clip-path">
      <rect id="Rectangle_8953" data-name="Rectangle 8953" width="71.906" height="80" fill="none"/>
    </clipPath>
  </defs>
  <g id="Free_tea" data-name="Free tea" transform="translate(0 0)">
    <g id="Group_22978" data-name="Group 22978" transform="translate(0 0)" clip-path="url(#clip-path)">
      <path id="Path_55754" data-name="Path 55754" d="M8.761,74.447A8.79,8.79,0,0,1,0,65.682a.613.613,0,0,1,.612-.611H18.219l-1.728-1.335A32.146,32.146,0,0,1,4.074,38.52V34.446a.613.613,0,0,1,.612-.613H59.013a.614.614,0,0,1,.613.613v3.22l.969-.306c.233-.072.469-.137.707-.191a8.686,8.686,0,0,1,10.39,6.582,8.7,8.7,0,0,1-6.583,10.391L53.861,56.737l-.164.232a31.914,31.914,0,0,1-6.487,6.768l-1.721,1.334h17.6a.613.613,0,0,1,.613.612,8.79,8.79,0,0,1-8.764,8.764H8.761ZM1.377,67.192A7.578,7.578,0,0,0,8.76,73.22H54.939a7.577,7.577,0,0,0,7.385-6.028l.184-.894H1.193ZM5.3,38.521A30.824,30.824,0,0,0,20.493,64.97l.175.1H43.034l.173-.1A30.82,30.82,0,0,0,58.4,38.522V35.061H5.3ZM63.064,42.58a3.364,3.364,0,0,1,2.935,5,3.34,3.34,0,0,1-2.02,1.6l-7.01,2-.142.317c-.346.769-.726,1.537-1.133,2.282l-.8,1.456,9.932-2.291a7.477,7.477,0,0,0,2.69-13.35l-1.18-.85V38.9a7.423,7.423,0,0,0-5.561-.326l-1.169.392-.016.518c-.028.962-.1,1.892-.2,2.767l-.122,1.021,3.122-.623a3.4,3.4,0,0,1,.674-.068m-4.142,2.547a31.989,31.989,0,0,1-.889,3.27l-.441,1.336L63.641,48a2.139,2.139,0,0,0-1.019-4.152l-3.7.742Z" transform="translate(0 5.553)" fill="#050605"/>
      <path id="Path_55755" data-name="Path 55755" d="M7.015,35.181A16.964,16.964,0,0,1,23.91,19.014H38.849a4.819,4.819,0,0,0,0-9.638A6.066,6.066,0,0,1,32.8,3.329V0H34.03V3.331a4.823,4.823,0,0,0,4.819,4.818,6.046,6.046,0,0,1,0,12.093H23.909A15.728,15.728,0,0,0,8.243,35.181Z" transform="translate(1.151 0)" fill="#050605"/>
      <path id="Path_55756" data-name="Path 55756" d="M47.854,35.181a4.827,4.827,0,0,0-4.762-4.074,4.009,4.009,0,0,1,0-8.019H49.2a8.214,8.214,0,1,0,0-16.428h-.679A6.053,6.053,0,0,1,42.479.615V0h1.227V.615a4.823,4.823,0,0,0,4.818,4.818H49.2a9.442,9.442,0,1,1,0,18.883H43.091a2.782,2.782,0,0,0,0,5.563,6.066,6.066,0,0,1,6,5.3Z" transform="translate(6.415 0)" fill="#050605"/>
      <path id="Path_55757" data-name="Path 55757" d="M14.5,53.305a19.89,19.89,0,0,1-5.576-10l1.2-.268a18.746,18.746,0,0,0,5.147,9.313Z" transform="translate(1.464 7.063)" fill="#050605"/>
      <path id="Path_55758" data-name="Path 55758" d="M8.289,39.81c-.045-.435-.078-.872-.1-1.31H9.417q.03.576.09,1.154Z" transform="translate(1.344 6.319)" fill="#050605"/>
    </g>
  </g>
</svg>
